<svg xmlns="http://www.w3.org/2000/svg" aria-hidden="true" overflow="hidden" style="position:absolute;width:0;height:0">
  <defs>
    <symbol id="icon-star" viewBox="0 0 32 32">
        <path fill="#ffb806" style="fill: var(--color1, #ffb806)" d="M7.399 29.584c0.51-2.524 1.153-4.837 1.465-7.194 0.116-0.879-0.292-2.092-0.899-2.747-1.355-1.462-3.054-2.6-4.471-4.012-0.577-0.575-1.245-1.695-1.035-2.25 0.228-0.601 1.399-1.060 2.216-1.178 1.979-0.287 4.023-0.183 5.979-0.558 0.868-0.166 1.884-0.944 2.314-1.729 0.994-1.814 1.59-3.842 2.52-5.697 0.322-0.643 1.111-1.341 1.767-1.43 0.453-0.062 1.239 0.782 1.534 1.387 0.878 1.796 1.646 3.653 2.34 5.529 0.482 1.305 1.193 2.024 2.676 2.054 2.002 0.040 4.012 0.183 5.994 0.458 0.751 0.104 1.957 0.624 2.026 1.091 0.105 0.711-0.386 1.917-0.994 2.263-5.374 3.055-6.592 7.306-4.144 12.87 0.269 0.611 0.027 2.040-0.369 2.218-0.659 0.295-1.916 0.193-2.433-0.278-4.546-4.146-8.945-4.136-13.475 0.024-1.037 0.953-2.381 1.358-3.012-0.821z"></path>
    </symbol>
    <symbol id="icon-close" viewBox="0 0 32 32">
        <path d="M26.159 3.443l-1.174 1.18-8.99 9.018-10.143-10.146-2.357 2.357 1.177 1.18 8.971 8.971-10.148 10.185 2.359 2.352 1.177-1.18 8.969-9 10.146 10.146 2.357-2.357-1.177-1.18-8.971-8.971 10.167-10.201-2.362-2.354z"></path>
    </symbol>
    <symbol id="icon-telegram" viewBox="0 0 32 32">
      <path fill="#29b6f6" style="fill: var(--color1, #29b6f6)" d="M16 2.667c-7.364 0-13.333 5.97-13.333 13.333s5.97 13.333 13.333 13.333v0c7.364 0 13.333-5.97 13.333-13.333s-5.97-13.333-13.333-13.333v0z"></path>
      <path fill="#fff" style="fill: var(--color2, #fff)" d="M22.633 10l-2.497 12.751c0 0-0.107 0.583-0.83 0.583-0.384 0-0.582-0.183-0.582-0.183l-5.409-4.489-2.647-1.334-3.397-0.903c0 0-0.605-0.175-0.605-0.675 0-0.417 0.622-0.615 0.622-0.615l14.211-5.645c-0.001-0.001 0.434-0.157 0.751-0.156 0.195 0 0.417 0.083 0.417 0.333 0 0.167-0.033 0.333-0.033 0.333z"></path>
      <path fill="#b0bec5" style="fill: var(--color3, #b0bec5)" d="M15.333 20.337l-2.284 2.249c0 0-0.099 0.077-0.232 0.080-0.046 0.001-0.095-0.006-0.146-0.029l0.643-3.977 2.019 1.676z"></path>
      <path fill="#cfd8dc" style="fill: var(--color4, #cfd8dc)" d="M19.931 12.131c-0.113-0.147-0.321-0.173-0.467-0.062l-8.797 5.265c0 0 1.404 3.928 1.618 4.608s0.387 0.697 0.387 0.697l0.643-3.977 6.555-6.064c0.147-0.111 0.174-0.32 0.063-0.467z"></path>
    </symbol>
  </defs>
</svg>
