<svg xmlns="http://www.w3.org/2000/svg" aria-hidden="true" overflow="hidden" style="position:absolute;width:0;height:0">
  <defs>
    <symbol id="icon-star" viewBox="0 0 32 32">
        <path fill="#ffb806" style="fill: var(--color1, #ffb806)" d="M7.399 29.584c0.51-2.524 1.153-4.837 1.465-7.194 0.116-0.879-0.292-2.092-0.899-2.747-1.355-1.462-3.054-2.6-4.471-4.012-0.577-0.575-1.245-1.695-1.035-2.25 0.228-0.601 1.399-1.060 2.216-1.178 1.979-0.287 4.023-0.183 5.979-0.558 0.868-0.166 1.884-0.944 2.314-1.729 0.994-1.814 1.59-3.842 2.52-5.697 0.322-0.643 1.111-1.341 1.767-1.43 0.453-0.062 1.239 0.782 1.534 1.387 0.878 1.796 1.646 3.653 2.34 5.529 0.482 1.305 1.193 2.024 2.676 2.054 2.002 0.040 4.012 0.183 5.994 0.458 0.751 0.104 1.957 0.624 2.026 1.091 0.105 0.711-0.386 1.917-0.994 2.263-5.374 3.055-6.592 7.306-4.144 12.87 0.269 0.611 0.027 2.040-0.369 2.218-0.659 0.295-1.916 0.193-2.433-0.278-4.546-4.146-8.945-4.136-13.475 0.024-1.037 0.953-2.381 1.358-3.012-0.821z"></path>
    </symbol>
    <symbol id="icon-close" viewBox="0 0 32 32">
        <path d="M26.159 3.443l-1.174 1.18-8.99 9.018-10.143-10.146-2.357 2.357 1.177 1.18 8.971 8.971-10.148 10.185 2.359 2.352 1.177-1.18 8.969-9 10.146 10.146 2.357-2.357-1.177-1.18-8.971-8.971 10.167-10.201-2.362-2.354z"></path>
    </symbol>
  </defs>
</svg>
