<svg width="22" height="21" fill="none" xmlns="http://www.w3.org/2000/svg"><path d="M21.207 20.264c0 .407-.33.736-.736.736h-6.46a.736.736 0 01-.735-.736v-6.23c0-3.908.448-6.816 1.345-8.724 1.025-2.156 2.69-3.816 4.992-4.98a.706.706 0 01.974.39l1.014 2.635c.145.377-.042.796-.405.972-1.225.592-2.14 1.369-2.748 2.328-.6.981-.948 2.285-1.043 3.911a.71.71 0 00.718.744h2.348c.407 0 .736.33.736.736v8.218zm-13.241 0c0 .407-.33.736-.736.736H.736A.736.736 0 010 20.264v-6.23c0-3.93.506-6.965 1.517-9.103.941-1.945 2.548-3.48 4.82-4.608a.708.708 0 01.973.394l1.016 2.642c.144.375-.04.793-.401.97-1.206.592-2.112 1.368-2.718 2.326-.6.98-.956 2.28-1.07 3.903a.71.71 0 00.72.752H7.23c.406 0 .736.33.736.736v8.218z" fill="#A1CA6B"/></svg>