<svg width="94" height="23" fill="none" xmlns="http://www.w3.org/2000/svg"><path d="M36.704 2.07l.145.736-.145-.736zm55.925 14.593a.75.75 0 00.608-.869L92.06 9.147a.75.75 0 00-1.477.262l1.045 5.908-5.908 1.045a.75.75 0 10.26 1.477l6.648-1.176zM2.842 21.811a.75.75 0 10-1.083-1.038l1.083 1.038zm1.455-3.548a.75.75 0 001.027 1.094l-1.027-1.094zm2.75-.467a.75.75 0 00-.987-1.13l.988 1.13zm1.76-3.409a.75.75 0 00.928 1.179l-.928-1.179zm2.78-.228a.75.75 0 00-.886-1.21l.887 1.21zm2.046-3.245a.75.75 0 10.823 1.254l-.823-1.254zm2.79.01a.75.75 0 00-.78-1.282l.78 1.282zm2.315-3.058a.75.75 0 00.713 1.32l-.713-1.32zm2.778.249a.75.75 0 10-.667-1.344l.667 1.344zm2.57-2.847a.75.75 0 10.596 1.376l-.596-1.376zm2.747.49a.75.75 0 10-.546-1.397l.546 1.398zm2.815-2.604a.75.75 0 00.468 1.425l-.468-1.425zm2.69.743a.75.75 0 10-.413-1.442l.412 1.442zm3.053-2.32a.75.75 0 00.323 1.466l-.323-1.465zM38 2.589a.75.75 0 10-.267-1.476L38 2.589zM41.28.563a.75.75 0 10.191 1.488L41.28.562zm2.515 1.234a.75.75 0 00-.136-1.494l.136 1.494zM47.242.079a.75.75 0 00.05 1.499l-.05-1.5zm2.393 1.465a.75.75 0 10.008-1.5l-.008 1.5zM53.231.167a.75.75 0 10-.094 1.497l.094-1.497zm2.236 1.689a.75.75 0 10.151-1.493l-.151 1.493zM59.182.828a.75.75 0 10-.236 1.481l.236-1.481zm2.072 1.892a.75.75 0 10.29-1.472l-.29 1.472zm3.791-.684a.75.75 0 10-.368 1.454l.368-1.454zm1.891 2.068a.75.75 0 10.418-1.44l-.418 1.44zm3.837-.355a.75.75 0 00-.489 1.418l.489-1.418zm1.717 2.218a.75.75 0 00.533-1.402l-.533 1.402zm3.847-.053a.75.75 0 00-.597 1.377l.597-1.377zm1.542 2.34a.75.75 0 10.636-1.357l-.636 1.358zm3.853.232a.75.75 0 00-.692 1.331l.692-1.33zm1.378 2.442a.75.75 0 00.726-1.313l-.726 1.313zm3.817.474a.75.75 0 00-.775 1.285l.775-1.284zm1.224 2.523a.75.75 0 10.805-1.266l-.805 1.266zm3.788.701a.75.75 0 10-.846 1.239l.846-1.239zM2.043 22.66c.265-.286.53-.568.799-.848l-1.083-1.038c-.274.286-.546.574-.816.866l1.1 1.02zm3.28-3.302a66.646 66.646 0 011.725-1.561l-.988-1.13a68.25 68.25 0 00-1.763 1.597l1.027 1.094zm4.412-3.791a67.483 67.483 0 011.853-1.407l-.887-1.21c-.636.466-1.267.945-1.894 1.438l.928 1.179zm4.72-3.398a68.205 68.205 0 011.968-1.244l-.78-1.282c-.673.41-1.343.834-2.01 1.272l.823 1.254zm4.996-2.983a67.43 67.43 0 012.065-1.07L20.85 6.77c-.704.35-1.409.715-2.111 1.095l.713 1.32zm5.23-2.54a64.949 64.949 0 012.152-.886l-.546-1.398c-.732.287-1.466.589-2.201.907l.596 1.376zm5.435-2.066a60.02 60.02 0 012.221-.682l-.412-1.442c-.754.215-1.513.448-2.277.699l.468 1.425zm5.598-1.536c.38-.084.759-.163 1.135-.237l-.29-1.472a54.63 54.63 0 00-1.168.244l.323 1.465zm1.135-.237a72.48 72.48 0 011.15-.218l-.267-1.476c-.4.073-.792.147-1.173.222l.29 1.472zm4.621-.756c.75-.096 1.525-.182 2.324-.254L43.658.302a64.87 64.87 0 00-2.378.26l.19 1.488zm5.823-.472a60.58 60.58 0 012.342-.034l.008-1.5c-.819-.004-1.62.008-2.4.035l.05 1.499zm5.844.086c.763.048 1.54.111 2.33.192l.151-1.493a62.583 62.583 0 00-2.387-.196l-.094 1.497zm5.81.645c.757.12 1.526.257 2.306.41l.29-1.47a65.14 65.14 0 00-2.361-.421l-.236 1.481zm5.73 1.181c.744.189 1.497.393 2.26.614l.417-1.44a69.516 69.516 0 00-2.309-.628l-.368 1.454zm5.607 1.677c.728.25 1.463.517 2.206.8l.533-1.402a75.274 75.274 0 00-2.25-.816l-.489 1.418zM75.74 7.29c.707.306 1.42.627 2.139.964l.636-1.359a82.633 82.633 0 00-2.178-.982L75.74 7.29zm5.3 2.526c.685.356 1.375.726 2.07 1.11l.726-1.312a91.46 91.46 0 00-2.104-1.129l-.692 1.331zm5.112 2.87c.662.4 1.328.812 1.999 1.238l.805-1.266a98.613 98.613 0 00-2.03-1.257l-.774 1.285zm4.94 3.178c.325.222.65.446.976.675l.86-1.23c-.33-.23-.66-.459-.989-.684l-.846 1.239z" fill="#8C8C8C"/></svg>